{
	"asset":{
		"generator":"Khronos glTF Blender I/O v3.6.27",
		"version":"2.0"
	},
	"scene":0,
	"scenes":[
		{
			"name":"Scene",
			"nodes":[
				0
			]
		}
	],
	"nodes":[
		{
			"mesh":0,
			"name":"building_H"
		}
	],
	"materials":[
		{
			"name":"citybits_texture.012",
			"pbrMetallicRoughness":{
				"baseColorTexture":{
					"index":0
				},
				"metallicFactor":0,
				"roughnessFactor":0.4000000059604645
			}
		}
	],
	"meshes":[
		{
			"name":"Cube.931",
			"primitives":[
				{
					"attributes":{
						"POSITION":0,
						"NORMAL":1,
						"TEXCOORD_0":2
					},
					"indices":3,
					"material":0
				}
			]
		}
	],
	"textures":[
		{
			"sampler":0,
			"source":0
		}
	],
	"images":[
		{
			"mimeType":"image/png",
			"name":"citybits_texture",
			"uri":"citybits_texture.png"
		}
	],
	"accessors":[
		{
			"bufferView":0,
			"componentType":5126,
			"count":3383,
			"max":[
				1.0033698081970215,
				3.049999952316284,
				1
			],
			"min":[
				-1.0033698081970215,
				0,
				-1
			],
			"type":"VEC3"
		},
		{
			"bufferView":1,
			"componentType":5126,
			"count":3383,
			"type":"VEC3"
		},
		{
			"bufferView":2,
			"componentType":5126,
			"count":3383,
			"type":"VEC2"
		},
		{
			"bufferView":3,
			"componentType":5123,
			"count":5712,
			"type":"SCALAR"
		}
	],
	"bufferViews":[
		{
			"buffer":0,
			"byteLength":40596,
			"byteOffset":0,
			"target":34962
		},
		{
			"buffer":0,
			"byteLength":40596,
			"byteOffset":40596,
			"target":34962
		},
		{
			"buffer":0,
			"byteLength":27064,
			"byteOffset":81192,
			"target":34962
		},
		{
			"buffer":0,
			"byteLength":11424,
			"byteOffset":108256,
			"target":34963
		}
	],
	"samplers":[
		{
			"magFilter":9729,
			"minFilter":9987
		}
	],
	"buffers":[
		{
			"byteLength":119680,
			"uri":"building_H.bin"
		}
	]
}
