{
	"asset":{
		"generator":"Khronos glTF Blender I/O v3.6.27",
		"version":"2.0"
	},
	"scene":0,
	"scenes":[
		{
			"name":"Scene",
			"nodes":[
				0
			]
		}
	],
	"nodes":[
		{
			"mesh":0,
			"name":"building_G_withoutBase"
		}
	],
	"materials":[
		{
			"name":"citybits_texture.011",
			"pbrMetallicRoughness":{
				"baseColorTexture":{
					"index":0
				},
				"metallicFactor":0,
				"roughnessFactor":0.4000000059604645
			}
		}
	],
	"meshes":[
		{
			"name":"Cube.945",
			"primitives":[
				{
					"attributes":{
						"POSITION":0,
						"NORMAL":1,
						"TEXCOORD_0":2
					},
					"indices":3,
					"material":0
				}
			]
		}
	],
	"textures":[
		{
			"sampler":0,
			"source":0
		}
	],
	"images":[
		{
			"mimeType":"image/png",
			"name":"citybits_texture",
			"uri":"citybits_texture.png"
		}
	],
	"accessors":[
		{
			"bufferView":0,
			"componentType":5126,
			"count":2013,
			"max":[
				1.0033698081970215,
				2.3499999046325684,
				0.8000000715255737
			],
			"min":[
				-1.0033698081970215,
				0.09993039071559906,
				-0.6499999761581421
			],
			"type":"VEC3"
		},
		{
			"bufferView":1,
			"componentType":5126,
			"count":2013,
			"type":"VEC3"
		},
		{
			"bufferView":2,
			"componentType":5126,
			"count":2013,
			"type":"VEC2"
		},
		{
			"bufferView":3,
			"componentType":5123,
			"count":3249,
			"type":"SCALAR"
		}
	],
	"bufferViews":[
		{
			"buffer":0,
			"byteLength":24156,
			"byteOffset":0,
			"target":34962
		},
		{
			"buffer":0,
			"byteLength":24156,
			"byteOffset":24156,
			"target":34962
		},
		{
			"buffer":0,
			"byteLength":16104,
			"byteOffset":48312,
			"target":34962
		},
		{
			"buffer":0,
			"byteLength":6498,
			"byteOffset":64416,
			"target":34963
		}
	],
	"samplers":[
		{
			"magFilter":9729,
			"minFilter":9987
		}
	],
	"buffers":[
		{
			"byteLength":70916,
			"uri":"building_G_withoutBase.bin"
		}
	]
}
